<svg width="10" height="12" viewBox="0 0 10 12" fill="none" xmlns="http://www.w3.org/2000/svg">
<path d="M9.21065 0.214363C9.03437 0.105748 8.8405 0.036696 8.64014 0.0111491C8.43978 -0.0143979 8.23683 0.0040612 8.04291 0.0654723C7.84898 0.126883 7.66786 0.230043 7.5099 0.36906C7.35195 0.508077 7.22024 0.680227 7.12231 0.875678L4.27157 6.56282L2.64005 4.7542C2.4984 4.59162 2.32896 4.46194 2.14162 4.37273C1.95427 4.28352 1.75278 4.23656 1.54889 4.2346C1.345 4.23263 1.1428 4.2757 0.954088 4.36129C0.765375 4.44688 0.593928 4.57328 0.449751 4.7331C0.305575 4.89293 0.191556 5.08299 0.114347 5.29218C0.0371382 5.50138 -0.00171376 5.72553 5.79772e-05 5.95155C0.00182972 6.17757 0.0441898 6.40094 0.124666 6.60862C0.205143 6.8163 0.322124 7.00413 0.468784 7.16115L3.53988 10.5656C3.8301 10.8882 4.22166 11.0652 4.62551 11.0652L4.83818 11.0482C5.07354 11.0117 5.29805 10.9151 5.49403 10.7661C5.69001 10.6171 5.85211 10.4197 5.96758 10.1894L9.80644 2.52939C9.90445 2.33402 9.96679 2.11916 9.98989 1.89708C10.013 1.675 9.99641 1.45006 9.94108 1.23508C9.88576 1.02011 9.79278 0.819324 9.66745 0.644188C9.54212 0.469052 9.3869 0.322997 9.21065 0.214363Z" fill="#0088FF"/>
</svg>
