<svg width="39" height="39" viewBox="0 0 39 39" fill="none" xmlns="http://www.w3.org/2000/svg">
<path d="M7.54637 7.79999H33.3839C35.8214 7.79999 37.0499 8.95049 37.0499 11.2905V27.7095C37.0499 30.03 35.8214 31.2 33.3839 31.2H7.54637C5.10887 31.2 3.88037 30.03 3.88037 27.7095V11.2905C3.88037 8.95049 5.10887 7.79999 7.54637 7.79999ZM20.4554 24.57L33.5984 13.7865C34.0664 13.3965 34.4369 12.4995 33.8519 11.7C33.2864 10.9005 32.2529 10.881 31.5704 11.3685L20.4554 18.8955L9.35987 11.3685C8.67737 10.881 7.64387 10.9005 7.07837 11.7C6.49337 12.4995 6.86387 13.3965 7.33187 13.7865L20.4554 24.57Z" fill="white"/>
</svg>
