<svg width="42" height="43" viewBox="0 0 42 43" fill="none" xmlns="http://www.w3.org/2000/svg">
<path d="M38.5 21.5C38.5 19.1472 38.0474 16.8174 37.1679 14.6436C36.2884 12.4699 34.9994 10.4948 33.3744 8.83104C31.7493 7.16733 29.8202 5.8476 27.697 4.9472C25.5738 4.0468 23.2981 3.58337 21 3.58337V7.16671C23.7688 7.16664 26.4755 8.00714 28.7778 9.58193C31.08 11.1567 32.8745 13.3951 33.9343 16.014C34.638 17.7532 35.0001 19.6174 35 21.5H38.5ZM3.5 17.9167V8.95837C3.5 8.48319 3.68437 8.02748 4.01256 7.69147C4.34075 7.35547 4.78587 7.16671 5.25 7.16671H14C14.4641 7.16671 14.9092 7.35547 15.2374 7.69147C15.5656 8.02748 15.75 8.48319 15.75 8.95837V16.125C15.75 16.6002 15.5656 17.0559 15.2374 17.3919C14.9092 17.7279 14.4641 17.9167 14 17.9167H10.5C10.5 21.7181 11.975 25.3639 14.6005 28.0519C17.226 30.7399 20.787 32.25 24.5 32.25V28.6667C24.5 28.1915 24.6844 27.7358 25.0126 27.3998C25.3408 27.0638 25.7859 26.875 26.25 26.875H33.25C33.7141 26.875 34.1593 27.0638 34.4874 27.3998C34.8156 27.7358 35 28.1915 35 28.6667V37.625C35 38.1002 34.8156 38.5559 34.4874 38.8919C34.1593 39.2279 33.7141 39.4167 33.25 39.4167H24.5C12.9028 39.4167 3.5 29.7901 3.5 17.9167Z" fill="white"/>
<path d="M30.7002 17.3863C31.2281 18.6905 31.4998 20.0883 31.5 21.5H28.35C28.35 19.5042 27.5756 17.5902 26.1972 16.179C24.8188 14.7678 22.9493 13.975 21 13.975V10.75C23.0766 10.7501 25.1066 11.3807 26.8332 12.5619C28.5599 13.7432 29.9056 15.4221 30.7002 17.3863Z" fill="white"/>
</svg>
