<svg width="25" height="22" viewBox="0 0 25 22" fill="none" xmlns="http://www.w3.org/2000/svg">
<path d="M21.4568 4.27393H21.2856V5.59672H21.4568C21.7238 5.59672 21.9798 5.6664 22.1686 5.79044C22.3574 5.91447 22.4635 6.0827 22.4635 6.25812V19.486C22.4635 19.6615 22.3574 19.8297 22.1686 19.9537C21.9798 20.0778 21.7238 20.1474 21.4568 20.1474H3.3352C3.06819 20.1474 2.81212 20.0778 2.62332 19.9537C2.43452 19.8297 2.32845 19.6615 2.32845 19.486V6.25812C2.32845 6.0827 2.43452 5.91447 2.62332 5.79044C2.81212 5.6664 3.06819 5.59672 3.3352 5.59672H3.50635V4.27393H3.3352C2.53418 4.27393 1.76596 4.48297 1.19956 4.85508C0.633147 5.22719 0.314941 5.73188 0.314941 6.25812V19.486C0.314941 20.0123 0.633147 20.517 1.19956 20.8891C1.76596 21.2612 2.53418 21.4702 3.3352 21.4702H21.4568C22.2578 21.4702 23.026 21.2612 23.5924 20.8891C24.1588 20.517 24.477 20.0123 24.477 19.486V6.25812C24.477 5.73188 24.1588 5.22719 23.5924 4.85508C23.026 4.48297 22.2578 4.27393 21.4568 4.27393Z" fill="white"/>
<path d="M19.4432 2.95148H16.4229V0.967285H8.36889V2.95148H5.34863V6.91986H19.4432V2.95148ZM17.4297 5.59706H7.36214V4.27427H10.3824V2.29008H14.4094V4.27427H17.4297V5.59706Z" fill="white"/>
<path d="M6.35547 9.56494H18.4365V10.8877H6.35547V9.56494ZM6.35547 12.8719H18.4365V14.1947H6.35547V12.8719ZM6.35547 16.1789H18.4365V17.5017H6.35547V16.1789Z" fill="white"/>
</svg>
