<svg width="31" height="24" viewBox="0 0 31 24" fill="none" xmlns="http://www.w3.org/2000/svg">
<path d="M10.08 15.8304H20.32M15.2 12.1174V15.8304M7.51999 6.5478V5.61954C7.51999 2.83475 9.43999 1.90649 12.64 1.90649H17.76C20.96 1.90649 22.88 3.29888 22.88 5.61954V6.5478C26.72 6.5478 29.28 8.40432 29.28 11.1891C29.28 13.9739 26.72 15.8304 22.88 15.8304M7.51999 6.5478H17.76M7.51999 6.5478C3.68 6.5478 1.12 7.94019 1.12 11.1891C1.12 14.438 3.68 15.8304 7.51999 15.8304M10.08 22.3282H20.32V12.1174H10.08V22.3282Z" stroke="black" stroke-width="2"/>
</svg>
