<svg width="37" height="23" viewBox="0 0 37 23" fill="none" xmlns="http://www.w3.org/2000/svg">
<path d="M18.2 0.445557C17.5283 0.445557 16.8632 0.541539 16.2426 0.728025C15.6221 0.914511 15.0582 1.18785 14.5832 1.53243C14.1083 1.87701 13.7315 2.28608 13.4745 2.7363C13.2174 3.18652 13.0851 3.66906 13.0851 4.15637C13.0851 4.64368 13.2174 5.12622 13.4745 5.57643C13.7315 6.02665 14.1083 6.43572 14.5832 6.7803C15.0582 7.12488 15.6221 7.39822 16.2426 7.58471C16.8632 7.77119 17.5283 7.86718 18.2 7.86718C19.5565 7.86718 20.8575 7.47622 21.8168 6.7803C22.776 6.08439 23.3149 5.14053 23.3149 4.15637C23.3149 3.1722 22.776 2.22834 21.8168 1.53243C20.8575 0.836516 19.5565 0.445557 18.2 0.445557ZM29.72 2.2991C28.7016 2.2991 27.7248 2.59262 27.0047 3.11507C26.2846 3.63753 25.88 4.34613 25.88 5.085C25.88 5.82386 26.2846 6.53246 27.0047 7.05492C27.7248 7.57738 28.7016 7.87089 29.72 7.87089C30.7384 7.87089 31.7151 7.57738 32.4353 7.05492C33.1554 6.53246 33.56 5.82386 33.56 5.085C33.56 4.34613 33.1554 3.63753 32.4353 3.11507C31.7151 2.59262 30.7384 2.2991 29.72 2.2991ZM6.68 2.2991C5.66157 2.2991 4.68485 2.59262 3.96471 3.11507C3.24457 3.63753 2.84 4.34613 2.84 5.085C2.84 5.82386 3.24457 6.53246 3.96471 7.05492C4.68485 7.57738 5.66157 7.87089 6.68 7.87089C7.69843 7.87089 8.67515 7.57738 9.39529 7.05492C10.1154 6.53246 10.52 5.82386 10.52 5.085C10.52 4.34613 10.1154 3.63753 9.39529 3.11507C8.67515 2.59262 7.69843 2.2991 6.68 2.2991ZM10.52 11.5724C10.5247 11.0821 10.7965 10.613 11.2761 10.2675C11.7557 9.92203 12.4041 9.72814 13.08 9.72815H23.32C23.999 9.72815 24.6501 9.92383 25.1302 10.2721C25.6103 10.6204 25.88 11.0928 25.88 11.5854V17.1572C25.8807 17.7418 25.7545 18.3228 25.5062 18.8789C24.9394 20.1394 23.7717 21.212 22.2128 21.9042C20.654 22.5963 18.8061 22.8626 17.001 22.6552C15.1958 22.4478 13.5518 21.7804 12.3639 20.7727C11.1761 19.765 10.5223 18.4831 10.52 17.1572V11.5724ZM7.96 11.5854C7.96 10.9075 8.20832 10.2742 8.64608 9.72815H2.84C2.16104 9.72815 1.5099 9.92383 1.02981 10.2721C0.549713 10.6204 0.279999 11.0928 0.279999 11.5854V16.2286C0.27965 16.9888 0.536577 17.7374 1.02822 18.4087C1.51986 19.08 2.23117 19.6535 3.09969 20.0787C3.96821 20.504 4.96737 20.7681 6.00942 20.8477C7.05148 20.9274 8.10455 20.8202 9.07616 20.5356C8.34091 19.4887 7.95839 18.3303 7.96 17.1553V11.5854ZM28.44 11.5854V17.1572C28.44 18.3737 28.0381 19.5215 27.3238 20.5356C28.2954 20.8202 29.3485 20.9274 30.3906 20.8477C31.4326 20.7681 32.4318 20.504 33.3003 20.0787C34.1688 19.6535 34.8801 19.08 35.3718 18.4087C35.8634 17.7374 36.1203 16.9888 36.12 16.2286V11.5854C36.12 11.0928 35.8503 10.6204 35.3702 10.2721C34.8901 9.92383 34.239 9.72815 33.56 9.72815H27.7539C28.1891 10.2742 28.44 10.9075 28.44 11.5854Z" fill="black"/>
</svg>
