<svg width="39" height="22" viewBox="0 0 39 22" fill="none" xmlns="http://www.w3.org/2000/svg">
<path d="M0.459626 11.1082C0.344097 11.3083 0 17.2089 0 17.2089C5.63853 15.9967 7.85521 17.8435 10.5232 21.8173L18.8763 20.9939C21.8933 15.2649 24.5115 15.1448 26.9966 16.9802L28.5841 16.8944C29.9223 14.0699 32.5487 10.3878 35.6406 6.38542L38.4 5.44773L37.2447 3.73816L33.5544 0.554013L30.8781 2.07319C26.1405 0.486545 23.9297 1.51858 21.9349 2.7776C18.6435 1.22012 15.9423 1.20354 13.6816 2.34306C12.8255 -0.0623462 4.55471 -0.371669 4.37767 2.69755C2.40701 3.42369 2.86498 4.83594 2.47932 6.01377C3.56065 7.88343 2.6788 9.34714 0.459626 11.1082Z" fill="black"/>
</svg>
