<svg width="39" height="22" viewBox="0 0 39 22" fill="none" xmlns="http://www.w3.org/2000/svg">
<path d="M5.23636 21.35C3.78182 21.35 2.54545 20.9837 1.52727 20.2511C0.509091 19.5185 0 18.6289 0 17.5823C0 17.0381 0.145455 16.5203 0.436364 16.0288C0.727273 15.5374 1.16364 15.1133 1.74545 14.7566V8.79117H5.23636V1.25588H19.2L27.4036 15.1648C27.5782 15.4578 27.7091 15.7509 27.7964 16.0439C27.8836 16.3369 27.9273 16.6404 27.9273 16.9544C27.9273 18.1684 27.3309 19.2045 26.1382 20.0627C24.9455 20.9209 23.5055 21.35 21.8182 21.35C20.6255 21.35 19.527 21.1252 18.5228 20.6756C17.5185 20.226 16.7703 19.6135 16.2781 18.8382H10.169C9.79084 19.5918 9.15084 20.1988 8.24902 20.6593C7.3472 21.1197 6.34298 21.35 5.23636 21.35ZM29.6727 20.0941V0H33.1636V17.5823H38.4V20.0941H29.6727ZM5.23636 18.8382C5.73091 18.8382 6.14575 18.7177 6.48087 18.4765C6.816 18.2354 6.98298 17.9373 6.98182 17.5823C6.98066 17.2273 6.81309 16.9293 6.47913 16.6882C6.14516 16.447 5.73091 16.3265 5.23636 16.3265C4.74182 16.3265 4.32756 16.447 3.9936 16.6882C3.65964 16.9293 3.49207 17.2273 3.49091 17.5823C3.48975 17.9373 3.65731 18.2358 3.9936 18.4778C4.32989 18.7198 4.74415 18.8399 5.23636 18.8382ZM21.8182 18.8382C22.5455 18.8382 23.1639 18.6553 23.6736 18.2894C24.1833 17.9235 24.4375 17.4785 24.4364 16.9544C24.4352 16.4303 24.1809 15.9857 23.6736 15.6207C23.1663 15.2556 22.5478 15.0723 21.8182 15.0706C21.0886 15.0689 20.4707 15.2523 19.9645 15.6207C19.4583 15.989 19.2035 16.4336 19.2 16.9544C19.1965 17.4752 19.4513 17.9202 19.9645 18.2894C20.4777 18.6586 21.0956 18.8416 21.8182 18.8382ZM13.8327 12.5588H22.08L16.8873 3.76765H8.72727V8.79117L13.8327 12.5588Z" fill="black"/>
</svg>
